<svg height="166.71" viewBox="0 0 973.53 166.71" width="973.53" xmlns="http://www.w3.org/2000/svg" xmlns:xlink="http://www.w3.org/1999/xlink"><linearGradient id="a" gradientUnits="userSpaceOnUse" x1="38.12" x2="87.39" y1="19.53" y2="81.02"><stop offset="0" stop-color="#3ee67b"/><stop offset=".28" stop-color="#3feb91"/><stop offset=".86" stop-color="#41f9ca"/><stop offset="1" stop-color="#42fcd9"/></linearGradient><linearGradient id="b" x1="99.13" x2="150.6" xlink:href="#a" y1="35.61" y2="99.85"/><linearGradient id="c" x1="21.34" x2="72.6" xlink:href="#a" y1="74.09" y2="138.07"/><linearGradient id="d" x1="84.41" x2="136.07" xlink:href="#a" y1="92.77" y2="157.26"/><g fill="#fff"><path d="m189.43 44.07h22.7l22.14 54.62 21.92-54.62h22.59v78.93h-19.22v-47.34l-17.65 47.34h-15.51l-17.76-47.46v47.46h-19.21z"/><path d="m320.47 123.87c-18.43 0-31.69-12.36-31.69-32.26s13-32.26 31.69-32.26c18.32 0 31.24 12.14 31.24 31.24a48.55 48.55 0 0 1 -.34 5.62h-43.49c.67 8.2 5.73 12 11.91 12 5.39 0 8.43-2.7 10-6.07h20.45c-3.03 12.29-14.15 21.73-29.77 21.73zm-12.47-38.33h24c0-6.85-5.39-10.79-11.8-10.79s-11.08 3.83-12.2 10.79z"/><path d="m385.65 59.36c9.22 0 16 4.16 19.33 9.78v-8.88h19.22v62.6c0 16.75-9.67 31-31.36 31-18.66 0-30.79-9.44-32.48-24.39h19c1.24 4.72 6 7.75 12.59 7.75 7.3 0 13-3.82 13-14.39v-8.83c-3.48 5.51-10.11 9.89-19.33 9.89-15.4 0-27.65-12.59-27.65-32.37s12.28-32.16 27.68-32.16zm5.62 16.75c-7.19 0-13.71 5.39-13.71 15.4s6.52 15.62 13.71 15.62 13.73-5.51 13.73-15.52-6.43-15.51-13.73-15.51z"/><path d="m462 59.36c9.33 0 16 4.27 19.33 9.78v-8.88h19.17v62.74h-19.22v-8.88c-3.48 5.51-10.11 9.78-19.44 9.78-15.28 0-27.53-12.59-27.53-32.37s12.25-32.17 27.69-32.17zm5.62 16.75c-7.19 0-13.71 5.39-13.71 15.4s6.52 15.62 13.71 15.62 13.71-5.51 13.71-15.51-6.45-15.52-13.76-15.52z"/><path d="m543 123.76c-17 0-30.23-8.43-30.79-24.39h20.45c.56 6.07 4.38 9 9.78 9 5.62 0 9.22-2.81 9.22-7.42 0-14.61-39.45-6.74-39.22-34.73 0-14.95 12.25-23.26 28.77-23.26 17.2 0 28.77 8.54 29.56 23.6h-20.82c-.34-5.06-3.93-8.09-9.1-8.2-4.61-.11-8.09 2.25-8.09 7.19 0 13.71 39 7.53 39 33.94-.01 13.25-10.35 24.27-28.76 24.27z"/><path d="m611.42 123.87c-18.43 0-31.69-12.36-31.69-32.26s13-32.26 31.69-32.26c18.32 0 31.24 12.14 31.24 31.24a48.66 48.66 0 0 1 -.34 5.62h-43.49c.67 8.2 5.73 12 11.91 12 5.4 0 8.43-2.7 10-6.07h20.46c-3.03 12.29-14.2 21.73-29.78 21.73zm-12.47-38.33h24.05c0-6.85-5.39-10.79-11.8-10.79s-11.13 3.83-12.25 10.79z"/><path d="m696 88.92c0-8.54-4.72-13.26-12-13.26s-12 4.72-12 13.26v34.08h-19.22v-62.74h19.22v8.32c3.82-5.28 10.56-9 19-9 14.5 0 24.16 9.89 24.16 26.75v36.67h-19.16z"/><path d="m752.35 59.36c9.33 0 16 4.27 19.33 9.78v-8.88h19.22v62.74h-19.22v-8.88c-3.48 5.51-10.12 9.78-19.44 9.78-15.28 0-27.53-12.59-27.53-32.37s12.29-32.17 27.64-32.17zm5.65 16.74c-7.19 0-13.71 5.39-13.71 15.4s6.52 15.62 13.71 15.62 13.71-5.51 13.71-15.51-6.44-15.51-13.71-15.51z"/><path d="m804.3 124.44c-4.33 0-7.24-2.91-7.24-6.53s2.91-6.68 7.24-6.68 7.17 2.91 7.17 6.68-2.91 6.53-7.17 6.53z"/><path d="m836.11 83.67c9.94 0 17 5.47 19 14.91h-12.89a6.26 6.26 0 0 0 -6.32-4.58c-4.33 0-7.31 3.41-7.31 10s3 10 7.31 10c3.34 0 5.25-1.63 6.32-4.54h12.92c-2.06 9.16-9.09 14.91-19 14.91-11.65 0-19.88-7.81-19.88-20.38s8.21-20.32 19.85-20.32z"/><path d="m879.65 124.44c-11.65 0-20.45-7.81-20.45-20.38s9-20.38 20.59-20.38 20.59 7.81 20.59 20.38-9.09 20.38-20.73 20.38zm0-10.51c4.33 0 8.38-3.2 8.38-9.87s-4-9.87-8.24-9.87-8.24 3.12-8.24 9.87 3.69 9.87 8.1 9.87z"/><path d="m961.45 102.35c0-5.18-3-8-7.6-8s-7.6 2.84-7.6 8v21.52h-12.07v-21.52c0-5.18-3-8-7.6-8s-7.6 2.84-7.6 8v21.52h-12.14v-39.63h12.16v5a14 14 0 0 1 11.58-5.4c6 0 10.79 2.63 13.49 7.38a15.94 15.94 0 0 1 13.35-7.38c9.8 0 16.12 6.25 16.12 16.9v23.15h-12.09z"/></g><path d="m82.29 82.07.06.08s11.12-57.34 1.06-71.56c-9.75-13.79-34.56-18.59-40.14 13.93-32.39-6.89-37.07 18-27.88 32.1 9.5 14.6 66.9 25.45 66.9 25.45z" fill="url(#a)"/><path d="m141.59 43.76c6.89-32.39-18-37.07-32.1-27.88-14.6 9.5-25.44 66.9-25.44 66.9l-.08.06s57.34 11.12 71.56 1.06c13.78-9.75 18.62-34.56-13.94-40.14z" fill="url(#b)"/><path d="m82 83.92.08-.06s-57.32-11.12-71.53-1.06c-13.75 9.72-18.55 34.53 13.97 40.11-6.89 32.39 18 37.07 32.1 27.88 14.6-9.5 25.44-66.9 25.44-66.9z" fill="url(#c)"/><path d="m83.83 84.64-.06-.08s-11.12 57.34-1.06 71.56c9.72 13.74 34.53 18.58 40.11-14 32.39 6.89 37.07-18 27.88-32.1-9.48-14.54-66.87-25.38-66.87-25.38z" fill="url(#d)"/></svg>